# xmcd CD database file
#
# Track frame offsets:
#	150
#	15500
#	29422
#	48050
#	66057
#	77567
#	91202
#	110280
#	127472
#	146262
#	159022
#
# Disc length: 2285 seconds
#
# Revision: 0
# Processed by: cddbd v1.5.2PL0 Copyright (c) Steve Scherf et al.
# Submitted via: CDex 1.51
#
DISCID=7d08eb0b
DTITLE=Rick Michel - Las Vegas Is A Dynamite Place To Be
DYEAR=2001
DGENRE=Jazz
TTITLE0=Las Vegas Is A Dynamite Place To Be
TTITLE1=Summerwind
TTITLE2=Here's To The Band
TTITLE3=How Do You Keep The Music Playing
TTITLE4=I Got You
TTITLE5=Until The Real Thing Comes Along
TTITLE6=Night And Day
TTITLE7=Something Old And Something New
TTITLE8=Teach Me Tonight
TTITLE9=Fly Me To The Moon
TTITLE10=That's What God Looks Like
EXTD=YEAR: 2001
EXTT0=
EXTT1=
EXTT2=
EXTT3=
EXTT4=
EXTT5=
EXTT6=
EXTT7=
EXTT8=
EXTT9=
EXTT10=
PLAYORDER=
